<svg xmlns="http://www.w3.org/2000/svg" xmlns:xlink="http://www.w3.org/1999/xlink" width="700pt" height="700pt" version="1.1" viewBox="175 80 350 450">
 <g>
  <path fill="#cc1616" d="m429.52 258.72c0 12.879-5.6016 25.199-15.121 34.16l-55.441 50.961c-2.8008 2.2383-5.6016 3.3594-8.9609 3.3594s-6.7188-1.1211-8.9609-3.3594l-55.441-50.961c-10.078-8.9609-15.121-21.281-15.121-34.16s5.6016-25.199 15.121-34.16c17.359-16.238 47.039-16.238 64.398-0.55859 17.359-15.68 47.039-15.68 64.398 0.55859 10.09 8.9609 15.129 21.281 15.129 34.16z"/>
  <path fill="#e22b6b" d="m350 90.719c-104.72 0-189.28 85.121-189.28 189.28 0 104.72 85.121 189.28 189.28 189.28 104.72 0 189.28-85.121 189.28-189.28 0-104.72-84.562-189.28-189.28-189.28zm0 351.68c-89.602 0-162.4-72.801-162.4-162.4 0-89.602 72.801-162.4 162.4-162.4 89.602 0 162.4 72.801 162.4 162.4 0 89.602-72.797 162.4-162.4 162.4z"/>
 </g>
</svg>
