<?xml version="1.0" encoding="UTF-8"?>
<svg width="700pt" height="700pt" version="1.1" viewBox="100 300 500 50" xmlns="http://www.w3.org/2000/svg" xmlns:xlink="http://www.w3.org/1999/xlink">
 <g fill="#FAFF00" stroke="black" stroke-width="6">
  <path d="m443.88 240.55c-0.66016-2.0273-2.4141-3.5039-4.5195-3.8125l-58.277-8.4727-26.062-52.809c-1.8945-3.832-8.1523-3.832-10.047 0l-26.062 52.809-58.277 8.4727c-2.1055 0.30859-3.8594 1.7812-4.5195 3.8125-0.66016 2.0234-0.11328 4.25 1.418 5.7344l42.168 41.109-9.9531 58.039c-0.35938 2.1016 0.50391 4.2227 2.2305 5.4766 1.7266 1.2617 4.0078 1.4219 5.8984 0.42578l52.121-27.398 52.125 27.402c0.81641 0.42969 1.7148 0.64453 2.6055 0.64453 1.1602 0 2.3203-0.35938 3.293-1.0703 1.7266-1.2539 2.5859-3.375 2.2305-5.4766l-9.9531-58.039 42.168-41.109c1.5234-1.4883 2.0703-3.7188 1.4141-5.7383z"/>
  <path d="m120.68 298.69c-0.66016 2.0234-0.11328 4.25 1.418 5.7344l32.613 31.797-7.6992 44.891c-0.35937 2.1016 0.50391 4.2227 2.2305 5.4766 1.7305 1.2617 4.0156 1.4297 5.8984 0.42578l40.312-21.191 40.312 21.191c0.81641 0.42969 1.7148 0.64453 2.6055 0.64453 1.1602 0 2.3203-0.35938 3.293-1.0703 1.7266-1.2539 2.5859-3.375 2.2305-5.4766l-7.6992-44.895 32.613-31.793c1.5234-1.4883 2.0781-3.7109 1.418-5.7344-0.66016-2.0273-2.4141-3.5039-4.5195-3.8125l-45.074-6.5586-20.156-40.84c-1.8867-3.832-8.1602-3.832-10.047 0l-20.156 40.84-45.074 6.5586c-2.1133 0.30859-3.8594 1.7852-4.5195 3.8125z"/>
  <path d="m579.32 298.69c-0.66016-2.0273-2.4141-3.5039-4.5195-3.8125l-45.074-6.5586-20.156-40.84c-1.8867-3.832-8.1602-3.832-10.047 0l-20.156 40.84-45.074 6.5586c-2.1055 0.30859-3.8594 1.7812-4.5195 3.8125-0.66016 2.0234-0.11328 4.25 1.418 5.7344l32.613 31.793-7.6992 44.895c-0.35938 2.1016 0.50391 4.2227 2.2305 5.4766 0.97266 0.71094 2.1328 1.0703 3.293 1.0703 0.89063 0 1.7852-0.21094 2.6055-0.64453l40.312-21.191 40.312 21.191c1.8945 1.0039 4.1719 0.82812 5.8984-0.42578 1.7266-1.2539 2.5859-3.375 2.2305-5.4766l-7.6992-44.891 32.613-31.797c1.5312-1.4844 2.082-3.7109 1.418-5.7344z"/>
 </g>
</svg>
